<svg version="1.1" id="Layer_1" xmlns="http://www.w3.org/2000/svg" xmlns:xlink="http://www.w3.org/1999/xlink" x="0px" y="0px"
	 width="100%" viewBox="0 0 404 919" enable-background="new 0 0 404 919" xml:space="preserve">
<path fill="#000000" opacity="1.000000" stroke="none" 
	d="
M66.000000,920.000000 
	C44.000004,920.000000 22.500008,920.000000 1.000009,920.000000 
	C1.000006,613.666748 1.000006,307.333466 1.000003,1.000132 
	C135.666580,1.000088 270.333160,1.000088 404.999817,1.000044 
	C404.999878,307.333191 404.999878,613.666382 404.999939,919.999756 
	C292.166656,920.000000 179.333328,920.000000 66.000000,920.000000 
M57.296589,553.572815 
	C54.561375,549.052795 51.913078,544.476013 49.025276,540.055725 
	C48.364674,539.044556 46.892151,538.029724 45.768356,538.001221 
	C44.576141,537.971069 42.538467,538.877991 42.277897,539.781616 
	C40.606857,545.576477 39.322819,551.482971 37.911591,557.352722 
	C38.368824,557.665771 38.826057,557.978760 39.283287,558.291748 
	C40.525375,557.022522 42.002728,555.907288 42.956669,554.449524 
	C44.551979,552.011536 49.899265,550.831909 51.350563,553.148071 
	C54.098652,557.533813 55.939171,555.568420 58.467278,553.491028 
	C63.114941,553.491028 67.762604,553.491028 72.218872,553.491028 
	C72.641037,551.378479 72.871574,550.224915 73.838524,549.102234 
	C73.804398,552.286133 75.047310,553.286194 78.148033,551.510071 
	C77.942558,549.667786 77.741394,547.864075 77.507111,545.763489 
	C80.018768,547.713684 82.173309,549.386536 84.327850,551.059448 
	C85.836349,548.776489 87.344849,546.493530 88.966354,544.039490 
	C89.468590,545.979858 89.986046,547.978943 90.554749,550.176025 
	C91.774673,549.983582 92.864052,549.811768 94.303162,549.584778 
	C93.871323,547.130493 93.473602,544.870178 93.994812,542.072937 
	C94.335800,542.783813 94.620262,543.529114 95.028923,544.198730 
	C96.037888,545.851807 97.182808,548.905029 98.133034,548.852661 
	C102.125679,548.632812 106.070068,547.493225 110.000412,546.557190 
	C110.065758,546.541687 109.731804,544.849548 109.551613,543.739075 
	C105.942070,544.195190 102.708885,544.603821 99.142281,545.054504 
	C98.506317,536.476074 106.585022,541.943115 108.899948,537.927124 
	C108.786324,537.378174 108.567459,536.320740 108.362656,535.331238 
	C104.757103,535.704834 101.445312,536.048035 98.133514,536.391235 
	C98.060051,535.757935 97.986580,535.124634 97.913116,534.491333 
	C101.159515,533.854004 104.405914,533.216675 107.652313,532.579346 
	C107.906189,532.199097 108.160065,531.818787 108.413940,531.438538 
	C107.253128,530.705017 105.899551,529.155457 104.964188,529.376404 
	C100.413757,530.451233 94.333282,528.608826 92.423805,535.294495 
	C92.274223,535.221436 92.124649,535.148376 92.047112,534.310120 
	C91.465881,533.327698 90.884651,532.345215 90.303413,531.362793 
	C89.214943,532.165771 87.595039,532.741699 87.137077,533.813965 
	C85.730278,537.107788 84.768547,540.591797 83.626404,544.024109 
	C78.701027,541.956177 79.644058,533.061218 71.934212,534.000549 
	C72.368622,539.343933 72.766350,544.236145 72.287842,549.438599 
	C68.917198,549.630737 65.546562,549.822876 62.239609,550.011414 
	C58.275684,536.238342 58.275684,536.238342 55.585178,537.015747 
	C56.450508,542.323059 57.323902,547.679871 57.296589,553.572815 
M121.944931,374.201233 
	C125.640251,376.949066 129.335571,379.696899 133.030899,382.444733 
	C133.409714,382.153503 133.788544,381.862244 134.167358,381.570984 
	C133.517059,372.640503 132.866760,363.710022 132.216461,354.779510 
	C131.733200,354.615021 131.249954,354.450500 130.766693,354.286011 
	C127.283936,357.889740 123.801170,361.493469 119.910660,363.888306 
	C120.625702,361.283203 121.340744,358.678101 122.055794,356.073029 
	C121.267029,355.630615 120.478271,355.188171 119.689514,354.745758 
	C115.620422,359.515686 111.519783,364.259674 107.540108,369.103027 
	C107.210075,369.504700 107.411926,370.897614 107.850319,371.291077 
	C112.441628,375.411957 117.131729,379.422821 121.794495,383.464142 
	C122.411522,383.080017 123.028542,382.695892 123.645561,382.311768 
	C122.897781,379.854340 122.149994,377.396912 121.944931,374.201233 
M276.912933,351.529266 
	C273.627075,348.362091 270.341187,345.194916 265.984802,340.995880 
	C265.984802,351.686646 265.984802,360.739197 265.984802,371.381927 
	C269.115173,368.495880 271.058807,366.542786 273.192383,364.825714 
	C273.923370,364.237396 275.130005,364.240051 276.180420,364.776093 
	C276.335419,366.467499 276.490417,368.158905 276.629822,369.679901 
	C281.758545,364.903381 286.584778,360.408600 291.834808,355.519104 
	C286.967255,351.327576 283.285309,345.515289 277.359528,342.277283 
	C276.908173,342.583069 276.456818,342.888824 276.005493,343.194611 
	C276.540161,346.214386 277.074829,349.234131 276.912933,351.529266 
M199.014435,368.508942 
	C194.771942,368.508942 190.529449,368.508942 185.976440,368.508942 
	C185.886765,366.990417 185.781815,365.213531 185.671173,363.339966 
	C190.143173,362.846771 194.363388,362.381317 198.865387,361.884796 
	C198.416641,360.009430 198.117554,358.759460 197.799255,357.429291 
	C193.512497,357.732605 189.433273,358.021240 184.969452,358.337097 
	C184.826004,353.672394 188.181458,355.275421 190.045044,354.914185 
	C192.570679,354.424561 195.169739,354.313721 197.988098,354.013702 
	C197.659378,352.160950 197.437119,350.908234 197.190460,349.518066 
	C192.496811,349.900391 188.054642,350.266022 183.611755,350.622711 
	C180.789459,350.849274 179.397720,352.242554 179.687866,355.188934 
	C180.159790,359.981140 180.730438,364.773163 180.933304,369.579071 
	C181.084976,373.172363 182.928314,374.237885 186.096817,373.922546 
	C190.367325,373.497559 194.632004,373.014008 198.967712,372.548218 
	C199.201065,371.248413 199.427124,369.989258 200.605972,368.628387 
	C202.133438,369.776245 203.603119,371.791840 205.199966,371.898224 
	C208.971939,372.149475 212.802032,371.454681 216.613159,371.214142 
	C219.781631,371.014160 221.005417,369.333710 220.696686,366.273132 
	C220.084412,360.203430 219.513443,354.129547 218.896896,347.762909 
	C217.109100,347.942444 215.664795,348.087463 214.057190,348.248901 
	C214.478409,354.330231 214.888901,360.256805 215.329636,366.619934 
	C212.035522,366.846802 209.138504,367.046326 206.308395,367.241241 
	C205.806717,365.294983 205.413727,363.770416 204.950272,361.972443 
	C203.254883,362.234985 201.871399,362.449219 200.910400,362.598053 
	C200.459106,365.007416 200.105637,366.894440 199.014435,368.508942 
M217.823853,459.219666 
	C218.154404,450.419067 219.040543,441.597565 218.710541,432.821808 
	C217.750107,407.281189 204.375381,390.024170 180.736282,384.453674 
	C163.279770,380.340118 146.815689,383.536255 134.458374,397.157593 
	C120.228394,412.843201 116.111183,433.008484 117.876877,453.030457 
	C119.998795,477.092010 133.912354,496.367065 150.899277,512.888184 
	C161.125732,522.834290 173.137772,522.714539 183.978180,513.071899 
	C200.173172,498.666382 211.955338,481.241760 217.823853,459.219666 
M225.980362,496.341553 
	C229.460602,503.758545 235.492157,506.760864 243.406784,506.031311 
	C253.007339,505.146271 262.589508,504.050262 272.169647,502.958221 
	C282.733887,501.754028 292.665863,492.306580 293.767731,481.868103 
	C294.797607,472.111542 295.459076,462.300201 295.840790,452.495789 
	C296.190399,443.517273 291.731628,437.726532 283.200348,435.097687 
	C277.170746,433.239777 271.133942,431.402496 265.074677,429.644623 
	C261.919281,428.729156 260.343567,426.935608 260.608002,423.488922 
	C261.206604,415.686493 261.470306,407.852875 262.304382,400.078491 
	C262.476532,398.473785 264.538361,397.071808 265.729218,395.576385 
	C266.405151,397.176331 267.711700,398.800873 267.650482,400.372101 
	C267.347778,408.138947 266.683289,415.891693 266.100159,424.317932 
	C277.058899,423.155945 287.527069,422.045959 298.084717,420.926483 
	C298.721283,411.245605 299.597290,402.123535 299.848267,392.984314 
	C300.126953,382.835999 292.007660,374.638306 282.316681,375.360931 
	C272.050446,376.126465 261.794739,377.276764 251.603989,378.742432 
	C241.262421,380.229797 232.693558,388.089172 231.155579,398.508270 
	C229.509476,409.659760 228.641342,420.994476 228.442459,432.266998 
	C228.311691,439.679291 232.621338,445.116638 240.006271,447.441040 
	C246.169266,449.380829 252.349884,451.282074 258.586273,452.964722 
	C262.403076,453.994537 264.150452,455.938171 263.728638,460.090363 
	C263.005463,467.208527 262.835205,474.385681 262.005920,481.488190 
	C261.811737,483.151337 259.910492,484.615112 258.794617,486.170593 
	C258.099884,484.632843 256.771362,483.076202 256.816589,481.560547 
	C257.053284,473.627899 257.638336,465.705627 258.129272,457.318665 
	C247.147034,458.503693 236.703979,459.630554 226.244263,460.759186 
	C225.773346,467.576569 225.119293,473.713531 224.994995,479.861145 
	C224.888748,485.116394 225.390335,490.383881 225.980362,496.341553 
M84.901581,396.231171 
	C84.143143,397.995483 82.836723,399.720642 82.707542,401.529877 
	C80.349762,434.553192 78.136864,467.586853 75.879768,500.617371 
	C75.706406,503.154388 75.523720,506.122437 72.095528,505.720551 
	C71.304321,505.627808 70.803276,502.313324 70.351074,500.437439 
	C70.166763,499.672852 70.490417,498.792664 70.544891,497.962616 
	C71.270241,486.910126 71.988823,475.857178 72.737129,464.374207 
	C61.829563,465.543640 51.365246,466.665558 40.761826,467.802399 
	C39.857670,480.806976 39.274704,493.269043 38.047680,505.667358 
	C36.874123,517.525391 45.501686,527.700562 59.539253,525.711914 
	C67.937241,524.522217 76.409027,523.860413 84.840317,522.897278 
	C96.992523,521.508972 106.891846,511.139862 107.757545,498.924744 
	C109.803635,470.054108 111.850113,441.183441 113.858513,412.310150 
	C114.293533,406.056244 114.569214,399.791260 114.942238,393.101654 
	C104.866310,394.147034 95.312447,395.138275 84.901581,396.231171 
M302.709106,422.008636 
	C300.951508,448.018311 299.193909,474.027985 297.404114,500.514282 
	C314.773010,498.654114 331.732788,496.837769 348.767914,495.013336 
	C349.743011,488.737061 350.643768,482.939331 351.617035,476.674957 
	C344.330261,477.390594 337.776031,478.034271 330.646667,478.734436 
	C331.492340,466.593079 332.320251,454.706543 333.166931,442.550568 
	C339.038177,441.885559 344.744507,441.239227 350.690735,440.565735 
	C351.106964,434.380096 351.502747,428.498566 351.910889,422.432739 
	C345.738617,422.995972 340.193512,423.501984 334.407990,424.029907 
	C335.273285,411.631195 336.092834,399.887573 336.921722,388.010925 
	C344.047516,387.168732 350.755798,386.375916 357.431763,385.586884 
	C357.431763,379.503296 357.431763,373.635223 357.431763,367.512054 
	C340.127777,369.361969 323.298096,371.161194 306.151337,372.994324 
	C305.029785,389.243195 303.930908,405.163361 302.709106,422.008636 
M88.165024,560.398315 
	C140.371902,555.639465 192.578766,550.880615 245.727997,546.035889 
	C240.426147,541.046265 236.024033,536.903442 231.156372,532.322449 
	C274.201538,523.415405 316.432617,514.676758 358.663727,505.938141 
	C358.577209,505.397614 358.490692,504.857086 358.404175,504.316589 
	C295.164062,511.103424 231.923935,517.890320 167.607224,524.792664 
	C174.693512,530.259216 180.660980,534.862610 187.587601,540.205994 
	C140.900833,547.667664 95.519264,554.920776 50.137695,562.173889 
	C50.182907,562.724854 50.228123,563.275757 50.273335,563.826721 
	C62.596840,562.716980 74.920341,561.607239 88.165024,560.398315 
M151.480835,376.942932 
	C154.440338,376.273499 158.896194,377.613037 158.837219,372.516663 
	C158.776077,367.231934 158.306763,361.913727 157.452591,356.702515 
	C157.232803,355.361633 154.883133,353.374908 153.531509,353.390472 
	C148.288147,353.450745 143.052704,354.198517 137.480118,354.721771 
	C138.147720,362.568848 138.785263,370.062744 139.451324,377.891846 
	C143.405273,377.566101 147.003601,377.269653 151.480835,376.942932 
M165.761414,365.335846 
	C169.839676,364.804352 173.917938,364.272888 178.303223,363.701416 
	C178.098022,362.127899 177.916428,360.735260 177.738174,359.368256 
	C165.607635,359.757751 165.607635,359.757751 165.119690,357.225098 
	C169.325287,356.806824 173.528107,356.388824 177.985519,355.945526 
	C177.651779,353.950073 177.441254,352.691376 177.223068,351.386780 
	C172.520630,351.698212 168.006958,351.617920 163.680588,352.478790 
	C162.054779,352.802338 159.734222,355.274323 159.684769,356.828979 
	C159.532669,361.609619 160.399796,366.415314 160.726898,371.221008 
	C160.971786,374.818787 162.747925,376.184662 166.275574,375.766937 
	C170.062485,375.318542 173.874146,375.081573 177.671066,374.711945 
	C178.118179,374.668427 178.540451,374.369720 179.149597,374.116394 
	C179.056183,372.794342 178.965881,371.516418 178.851624,369.899567 
	C174.525452,370.174042 170.420303,370.434540 166.128540,370.706848 
	C165.919174,369.168518 165.719559,367.701813 165.761414,365.335846 
M237.306061,350.101959 
	C236.045471,348.856720 234.908463,346.804840 233.490356,346.587555 
	C232.000046,346.359253 229.197937,347.514069 228.770096,348.709198 
	C226.230621,355.802887 224.213791,363.083649 222.007217,370.347992 
	C227.518677,372.132996 228.296448,368.104523 229.718964,363.958191 
	C233.044434,364.617554 237.412842,364.201782 238.984360,366.100677 
	C241.249222,368.837341 243.018646,369.382660 246.484634,368.391937 
	C243.525543,362.417694 240.628510,356.568756 237.306061,350.101959 
M142.545242,542.970947 
	C145.972321,543.143127 147.446960,541.585938 146.950897,538.134888 
	C146.455383,534.687561 146.380005,531.137817 145.468155,527.811829 
	C145.069626,526.358215 143.009628,524.288208 141.769318,524.332275 
	C137.563431,524.481750 133.386673,525.450562 129.010712,526.135803 
	C129.908035,532.510925 130.728561,538.340637 131.607269,544.583618 
	C135.231766,544.019592 138.462799,543.516724 142.545242,542.970947 
M249.431580,367.011383 
	C251.104630,367.401855 252.777695,367.792358 256.121246,368.572723 
	C250.715363,357.947235 257.883514,351.729095 262.123383,343.086823 
	C258.807556,344.278900 256.462616,344.550293 254.948990,345.815887 
	C253.197662,347.280334 252.177887,349.619659 250.789124,351.654419 
	C244.263321,344.825775 244.263321,344.825775 239.487747,346.569641 
	C249.007492,358.951904 249.007492,358.951904 249.431580,367.011383 
M151.562103,528.924805 
	C150.534729,533.168213 149.507370,537.411560 148.480011,541.654968 
	C149.031387,542.006775 149.582764,542.358582 150.134155,542.710449 
	C151.723297,540.958496 153.312454,539.206543 155.732071,536.539001 
	C157.118256,536.785767 159.689590,537.031250 162.121750,537.748596 
	C163.838120,538.254822 165.365677,539.401306 166.977524,540.261902 
	C167.253998,539.781006 167.530457,539.300049 167.806931,538.819153 
	C165.029160,533.965454 162.371780,529.035583 159.383606,524.315125 
	C158.691330,523.221619 156.864471,522.296631 155.569321,522.308960 
	C154.538757,522.318787 153.286224,523.718445 152.573700,524.793640 
	C151.979446,525.690308 152.025879,527.011658 151.562103,528.924805 
M112.904091,532.739990 
	C115.366714,536.780212 117.829346,540.820496 120.291969,544.860779 
	C122.553696,546.790894 123.669769,545.005920 122.683006,542.198242 
	C121.279907,538.205933 122.798309,535.118103 124.669334,531.901367 
	C125.632347,530.245667 126.365669,528.456421 127.202805,526.727539 
	C126.734184,526.303223 126.265572,525.878845 125.796959,525.454529 
	C123.429260,527.654480 121.061562,529.854431 118.540787,532.196655 
	C116.147064,530.876099 114.495605,525.943420 109.834656,529.226257 
	C110.745491,530.278687 111.593834,531.258911 112.904091,532.739990 
z"/>
<path fill="#FCFCFC" opacity="1.000000" stroke="none" 
	d="
M217.712524,459.629333 
	C211.955338,481.241760 200.173172,498.666382 183.978180,513.071899 
	C173.137772,522.714539 161.125732,522.834290 150.899277,512.888184 
	C133.912354,496.367065 119.998795,477.092010 117.876877,453.030457 
	C116.111183,433.008484 120.228394,412.843201 134.458374,397.157593 
	C146.815689,383.536255 163.279770,380.340118 180.736282,384.453674 
	C204.375381,390.024170 217.750107,407.281189 218.710541,432.821808 
	C219.040543,441.597565 218.154404,450.419067 217.712524,459.629333 
M127.525452,464.858765 
	C132.812195,479.511780 148.868378,490.589691 161.606140,488.372620 
	C157.624863,468.733368 144.898453,456.525757 124.690468,453.459900 
	C125.546738,457.165955 126.354347,460.661377 127.525452,464.858765 
M205.837265,456.264893 
	C185.671371,457.718018 172.827835,475.639984 173.309952,488.950134 
	C192.328598,487.468262 207.715225,474.177277 211.122803,456.105072 
	C209.624420,456.105072 208.165482,456.105072 205.837265,456.264893 
z"/>
<path fill="#FBFBFB" opacity="1.000000" stroke="none" 
	d="
M225.801712,495.993774 
	C225.390335,490.383881 224.888748,485.116394 224.994995,479.861145 
	C225.119293,473.713531 225.773346,467.576569 226.244263,460.759186 
	C236.703979,459.630554 247.147034,458.503693 258.129272,457.318665 
	C257.638336,465.705627 257.053284,473.627899 256.816589,481.560547 
	C256.771362,483.076202 258.099884,484.632843 258.794617,486.170593 
	C259.910492,484.615112 261.811737,483.151337 262.005920,481.488190 
	C262.835205,474.385681 263.005463,467.208527 263.728638,460.090363 
	C264.150452,455.938171 262.403076,453.994537 258.586273,452.964722 
	C252.349884,451.282074 246.169266,449.380829 240.006271,447.441040 
	C232.621338,445.116638 228.311691,439.679291 228.442459,432.266998 
	C228.641342,420.994476 229.509476,409.659760 231.155579,398.508270 
	C232.693558,388.089172 241.262421,380.229797 251.603989,378.742432 
	C261.794739,377.276764 272.050446,376.126465 282.316681,375.360931 
	C292.007660,374.638306 300.126953,382.835999 299.848267,392.984314 
	C299.597290,402.123535 298.721283,411.245605 298.084717,420.926483 
	C287.527069,422.045959 277.058899,423.155945 266.100159,424.317932 
	C266.683289,415.891693 267.347778,408.138947 267.650482,400.372101 
	C267.711700,398.800873 266.405151,397.176331 265.729218,395.576385 
	C264.538361,397.071808 262.476532,398.473785 262.304382,400.078491 
	C261.470306,407.852875 261.206604,415.686493 260.608002,423.488922 
	C260.343567,426.935608 261.919281,428.729156 265.074677,429.644623 
	C271.133942,431.402496 277.170746,433.239777 283.200348,435.097687 
	C291.731628,437.726532 296.190399,443.517273 295.840790,452.495789 
	C295.459076,462.300201 294.797607,472.111542 293.767731,481.868103 
	C292.665863,492.306580 282.733887,501.754028 272.169647,502.958221 
	C262.589508,504.050262 253.007339,505.146271 243.406784,506.031311 
	C235.492157,506.760864 229.460602,503.758545 225.801712,495.993774 
z"/>
<path fill="#FBFBFB" opacity="1.000000" stroke="none" 
	d="
M85.330086,396.180328 
	C95.312447,395.138275 104.866310,394.147034 114.942238,393.101654 
	C114.569214,399.791260 114.293533,406.056244 113.858513,412.310150 
	C111.850113,441.183441 109.803635,470.054108 107.757545,498.924744 
	C106.891846,511.139862 96.992523,521.508972 84.840317,522.897278 
	C76.409027,523.860413 67.937241,524.522217 59.539253,525.711914 
	C45.501686,527.700562 36.874123,517.525391 38.047680,505.667358 
	C39.274704,493.269043 39.857670,480.806976 40.761826,467.802399 
	C51.365246,466.665558 61.829563,465.543640 72.737129,464.374207 
	C71.988823,475.857178 71.270241,486.910126 70.544891,497.962616 
	C70.490417,498.792664 70.166763,499.672852 70.351074,500.437439 
	C70.803276,502.313324 71.304321,505.627808 72.095528,505.720551 
	C75.523720,506.122437 75.706406,503.154388 75.879768,500.617371 
	C78.136864,467.586853 80.349762,434.553192 82.707542,401.529877 
	C82.836723,399.720642 84.143143,397.995483 85.330086,396.180328 
z"/>
<path fill="#FBFBFB" opacity="1.000000" stroke="none" 
	d="
M302.770569,421.546082 
	C303.930908,405.163361 305.029785,389.243195 306.151337,372.994324 
	C323.298096,371.161194 340.127777,369.361969 357.431763,367.512054 
	C357.431763,373.635223 357.431763,379.503296 357.431763,385.586884 
	C350.755798,386.375916 344.047516,387.168732 336.921722,388.010925 
	C336.092834,399.887573 335.273285,411.631195 334.407990,424.029907 
	C340.193512,423.501984 345.738617,422.995972 351.910889,422.432739 
	C351.502747,428.498566 351.106964,434.380096 350.690735,440.565735 
	C344.744507,441.239227 339.038177,441.885559 333.166931,442.550568 
	C332.320251,454.706543 331.492340,466.593079 330.646667,478.734436 
	C337.776031,478.034271 344.330261,477.390594 351.617035,476.674957 
	C350.643768,482.939331 349.743011,488.737061 348.767914,495.013336 
	C331.732788,496.837769 314.773010,498.654114 297.404114,500.514282 
	C299.193909,474.027985 300.951508,448.018311 302.770569,421.546082 
z"/>
<path fill="#F6F6F6" opacity="1.000000" stroke="none" 
	d="
M87.704437,560.447876 
	C74.920341,561.607239 62.596840,562.716980 50.273335,563.826721 
	C50.228123,563.275757 50.182907,562.724854 50.137695,562.173889 
	C95.519264,554.920776 140.900833,547.667664 187.587601,540.205994 
	C180.660980,534.862610 174.693512,530.259216 167.607224,524.792664 
	C231.923935,517.890320 295.164062,511.103424 358.404175,504.316589 
	C358.490692,504.857086 358.577209,505.397614 358.663727,505.938141 
	C316.432617,514.676758 274.201538,523.415405 231.156372,532.322449 
	C236.024033,536.903442 240.426147,541.046265 245.727997,546.035889 
	C192.578766,550.880615 140.371902,555.639465 87.704437,560.447876 
z"/>
<path fill="#EDEDED" opacity="1.000000" stroke="none" 
	d="
M151.041382,376.958069 
	C147.003601,377.269653 143.405273,377.566101 139.451324,377.891846 
	C138.785263,370.062744 138.147720,362.568848 137.480118,354.721771 
	C143.052704,354.198517 148.288147,353.450745 153.531509,353.390472 
	C154.883133,353.374908 157.232803,355.361633 157.452591,356.702515 
	C158.306763,361.913727 158.776077,367.231934 158.837219,372.516663 
	C158.896194,377.613037 154.440338,376.273499 151.041382,376.958069 
M150.521881,372.154236 
	C151.573929,371.352264 153.527664,370.546539 153.524384,369.748932 
	C153.508820,365.980865 152.957886,362.215027 152.566620,358.122314 
	C149.206772,358.493927 146.168076,358.829987 142.891693,359.192383 
	C143.346054,363.912201 143.766327,368.277924 144.193726,372.717743 
	C146.384064,372.510071 148.032043,372.353821 150.521881,372.154236 
z"/>
<path fill="#EBEBEB" opacity="1.000000" stroke="none" 
	d="
M199.653168,368.730103 
	C199.427124,369.989258 199.201065,371.248413 198.967712,372.548218 
	C194.632004,373.014008 190.367325,373.497559 186.096817,373.922546 
	C182.928314,374.237885 181.084976,373.172363 180.933304,369.579071 
	C180.730438,364.773163 180.159790,359.981140 179.687866,355.188934 
	C179.397720,352.242554 180.789459,350.849274 183.611755,350.622711 
	C188.054642,350.266022 192.496811,349.900391 197.190460,349.518066 
	C197.437119,350.908234 197.659378,352.160950 197.988098,354.013702 
	C195.169739,354.313721 192.570679,354.424561 190.045044,354.914185 
	C188.181458,355.275421 184.826004,353.672394 184.969452,358.337097 
	C189.433273,358.021240 193.512497,357.732605 197.799255,357.429291 
	C198.117554,358.759460 198.416641,360.009430 198.865387,361.884796 
	C194.363388,362.381317 190.143173,362.846771 185.671173,363.339966 
	C185.781815,365.213531 185.886765,366.990417 185.976440,368.508942 
	C190.529449,368.508942 194.771942,368.508942 199.357788,368.633850 
	C199.701126,368.758759 199.653168,368.730103 199.653168,368.730103 
z"/>
<path fill="#EAEAEA" opacity="1.000000" stroke="none" 
	d="
M165.640686,365.785461 
	C165.719559,367.701813 165.919174,369.168518 166.128540,370.706848 
	C170.420303,370.434540 174.525452,370.174042 178.851624,369.899567 
	C178.965881,371.516418 179.056183,372.794342 179.149597,374.116394 
	C178.540451,374.369720 178.118179,374.668427 177.671066,374.711945 
	C173.874146,375.081573 170.062485,375.318542 166.275574,375.766937 
	C162.747925,376.184662 160.971786,374.818787 160.726898,371.221008 
	C160.399796,366.415314 159.532669,361.609619 159.684769,356.828979 
	C159.734222,355.274323 162.054779,352.802338 163.680588,352.478790 
	C168.006958,351.617920 172.520630,351.698212 177.223068,351.386780 
	C177.441254,352.691376 177.651779,353.950073 177.985519,355.945526 
	C173.528107,356.388824 169.325287,356.806824 165.119690,357.225098 
	C165.607635,359.757751 165.607635,359.757751 177.738174,359.368256 
	C177.916428,360.735260 178.098022,362.127899 178.303223,363.701416 
	C173.917938,364.272888 169.839676,364.804352 165.640686,365.785461 
z"/>
<path fill="#EDEDED" opacity="1.000000" stroke="none" 
	d="
M237.518768,350.410889 
	C240.628510,356.568756 243.525543,362.417694 246.484634,368.391937 
	C243.018646,369.382660 241.249222,368.837341 238.984360,366.100677 
	C237.412842,364.201782 233.044434,364.617554 229.718964,363.958191 
	C228.296448,368.104523 227.518677,372.132996 222.007217,370.347992 
	C224.213791,363.083649 226.230621,355.802887 228.770096,348.709198 
	C229.197937,347.514069 232.000046,346.359253 233.490356,346.587555 
	C234.908463,346.804840 236.045471,348.856720 237.518768,350.410889 
z"/>
<path fill="#EDEDED" opacity="1.000000" stroke="none" 
	d="
M73.164078,549.128296 
	C72.766350,544.236145 72.368622,539.343933 71.934212,534.000549 
	C79.644058,533.061218 78.701027,541.956177 83.626404,544.024109 
	C84.768547,540.591797 85.730278,537.107788 87.137077,533.813965 
	C87.595039,532.741699 89.214943,532.165771 90.303421,531.362793 
	C90.884651,532.345215 91.465881,533.327698 92.000702,535.073608 
	C92.328148,538.094604 92.702011,540.352234 93.075874,542.609802 
	C93.473602,544.870178 93.871323,547.130493 94.303162,549.584778 
	C92.864052,549.811768 91.774673,549.983582 90.554749,550.176025 
	C89.986046,547.978943 89.468590,545.979858 88.966354,544.039490 
	C87.344849,546.493530 85.836349,548.776489 84.327850,551.059448 
	C82.173309,549.386536 80.018768,547.713684 77.507111,545.763489 
	C77.741394,547.864075 77.942558,549.667786 78.148033,551.510071 
	C75.047310,553.286194 73.804398,552.286133 73.466721,549.116882 
	C73.094925,549.131531 73.164070,549.128296 73.164078,549.128296 
z"/>
<path fill="#F1F1F1" opacity="1.000000" stroke="none" 
	d="
M276.119324,363.972687 
	C275.130005,364.240051 273.923370,364.237396 273.192383,364.825714 
	C271.058807,366.542786 269.115173,368.495880 265.984802,371.381927 
	C265.984802,360.739197 265.984802,351.686646 265.984802,340.995880 
	C270.341187,345.194916 273.627075,348.362091 277.264984,351.851135 
	C277.883698,352.453949 278.150360,352.734863 278.669983,353.293640 
	C279.181702,355.079285 279.453308,356.584991 279.694092,358.095612 
	C279.825592,358.920654 279.904999,359.754028 279.911865,360.624023 
	C279.815796,360.664398 279.588684,361.004456 279.305481,360.516357 
	C278.322815,360.689728 277.623352,361.351166 276.965973,362.012878 
	C277.008087,362.013123 277.013123,361.929077 276.559509,361.960632 
	C276.061279,362.683228 276.016663,363.374298 276.018616,364.057709 
	C276.065216,364.050079 276.119324,363.972687 276.119324,363.972687 
z"/>
<path fill="#F3F3F3" opacity="1.000000" stroke="none" 
	d="
M120.318382,365.097168 
	C123.801170,361.493469 127.283936,357.889740 130.766693,354.286011 
	C131.249954,354.450500 131.733200,354.615021 132.216461,354.779510 
	C132.866760,363.710022 133.517059,372.640503 134.167358,381.570984 
	C133.788544,381.862244 133.409714,382.153503 133.030899,382.444733 
	C129.335571,379.696899 125.640251,376.949066 121.712585,374.607666 
	C121.480232,375.014130 121.574600,375.065460 121.597763,374.399048 
	C120.881348,373.818451 120.141769,373.904327 119.355515,373.747681 
	C118.884628,372.828156 118.460411,372.151123 118.308563,371.111023 
	C118.899628,368.839630 119.218323,366.931274 119.630760,365.065125 
	C120.049355,365.103760 120.247307,365.100403 120.318382,365.097168 
z"/>
<path fill="#EBEBEB" opacity="1.000000" stroke="none" 
	d="
M199.726654,368.770081 
	C200.105637,366.894440 200.459106,365.007416 200.910400,362.598053 
	C201.871399,362.449219 203.254883,362.234985 204.950272,361.972443 
	C205.413727,363.770416 205.806717,365.294983 206.308395,367.241241 
	C209.138504,367.046326 212.035522,366.846802 215.329636,366.619934 
	C214.888901,360.256805 214.478409,354.330231 214.057190,348.248901 
	C215.664795,348.087463 217.109100,347.942444 218.896896,347.762909 
	C219.513443,354.129547 220.084412,360.203430 220.696686,366.273132 
	C221.005417,369.333710 219.781631,371.014160 216.613159,371.214142 
	C212.802032,371.454681 208.971939,372.149475 205.199966,371.898224 
	C203.603119,371.791840 202.133438,369.776245 200.129578,368.679260 
	C199.653168,368.730103 199.701126,368.758759 199.726654,368.770081 
z"/>
<path fill="#E6E6E6" opacity="1.000000" stroke="none" 
	d="
M142.119537,542.992432 
	C138.462799,543.516724 135.231766,544.019592 131.607269,544.583618 
	C130.728561,538.340637 129.908035,532.510925 129.010712,526.135803 
	C133.386673,525.450562 137.563431,524.481750 141.769318,524.332275 
	C143.009628,524.288208 145.069626,526.358215 145.468155,527.811829 
	C146.380005,531.137817 146.455383,534.687561 146.950897,538.134888 
	C147.446960,541.585938 145.972321,543.143127 142.119537,542.992432 
M138.907227,539.676453 
	C140.190567,539.442749 141.473892,539.209045 142.850342,538.958435 
	C142.321304,535.297058 141.837524,531.948853 141.329300,528.431580 
	C138.606659,528.719788 136.360992,528.957458 133.829758,529.225342 
	C134.206757,532.348633 134.369736,535.324463 135.045059,538.179138 
	C135.219330,538.915710 137.003189,539.271423 138.907227,539.676453 
z"/>
<path fill="#E8E8E8" opacity="1.000000" stroke="none" 
	d="
M93.535339,542.341370 
	C92.702011,540.352234 92.328148,538.094604 91.964676,535.456177 
	C92.124649,535.148376 92.274223,535.221436 92.423805,535.294495 
	C94.333282,528.608826 100.413757,530.451233 104.964188,529.376404 
	C105.899551,529.155457 107.253128,530.705017 108.413940,531.438538 
	C108.160065,531.818787 107.906189,532.199097 107.652313,532.579346 
	C104.405914,533.216675 101.159515,533.854004 97.913116,534.491333 
	C97.986580,535.124634 98.060051,535.757935 98.133514,536.391235 
	C101.445312,536.048035 104.757103,535.704834 108.362656,535.331238 
	C108.567459,536.320740 108.786324,537.378174 108.899948,537.927124 
	C106.585022,541.943115 98.506317,536.476074 99.142281,545.054504 
	C102.708885,544.603821 105.942070,544.195190 109.551613,543.739075 
	C109.731804,544.849548 110.065758,546.541687 110.000412,546.557190 
	C106.070068,547.493225 102.125679,548.632812 98.133034,548.852661 
	C97.182808,548.905029 96.037888,545.851807 95.028923,544.198730 
	C94.620262,543.529114 94.335800,542.783813 93.535339,542.341370 
z"/>
<path fill="#E8E8E8" opacity="1.000000" stroke="none" 
	d="
M57.941891,552.700073 
	C55.939171,555.568420 54.098652,557.533813 51.350563,553.148071 
	C49.899265,550.831909 44.551979,552.011536 42.956669,554.449524 
	C42.002728,555.907288 40.525375,557.022522 39.283287,558.291748 
	C38.826057,557.978760 38.368824,557.665771 37.911591,557.352722 
	C39.322819,551.482971 40.606857,545.576477 42.277897,539.781616 
	C42.538467,538.877991 44.576141,537.971069 45.768356,538.001221 
	C46.892151,538.029724 48.364674,539.044556 49.025276,540.055725 
	C51.913078,544.476013 54.561375,549.052795 57.718491,553.268555 
	C58.140392,552.964355 57.941891,552.700073 57.941891,552.700073 
z"/>
<path fill="#EDEDED" opacity="1.000000" stroke="none" 
	d="
M118.036201,371.474121 
	C118.460411,372.151123 118.884628,372.828156 119.654305,374.048462 
	C120.524712,374.749664 121.049652,374.907562 121.574600,375.065460 
	C121.574600,375.065460 121.480232,375.014130 121.441223,374.976807 
	C122.149994,377.396912 122.897781,379.854340 123.645561,382.311768 
	C123.028542,382.695892 122.411522,383.080017 121.794495,383.464142 
	C117.131729,379.422821 112.441628,375.411957 107.850319,371.291077 
	C107.411926,370.897614 107.210075,369.504700 107.540108,369.103027 
	C111.519783,364.259674 115.620422,359.515686 119.689514,354.745758 
	C120.478271,355.188171 121.267029,355.630615 122.055794,356.073029 
	C121.340744,358.678101 120.625702,361.283203 120.114510,364.492737 
	C120.247307,365.100403 120.049355,365.103760 119.211945,364.926941 
	C114.115982,369.207153 114.049675,369.879761 118.036201,371.474121 
z"/>
<path fill="#EBEBEB" opacity="1.000000" stroke="none" 
	d="
M249.388580,366.568298 
	C249.007492,358.951904 249.007492,358.951904 239.487747,346.569641 
	C244.263321,344.825775 244.263321,344.825775 250.789124,351.654419 
	C252.177887,349.619659 253.197662,347.280334 254.948990,345.815887 
	C256.462616,344.550293 258.807556,344.278900 262.123383,343.086823 
	C257.883514,351.729095 250.715363,357.947235 256.121246,368.572723 
	C252.777695,367.792358 251.104630,367.401855 249.388580,366.568298 
z"/>
<path fill="#EDEDED" opacity="1.000000" stroke="none" 
	d="
M279.588684,361.004456 
	C279.588684,361.004456 279.815796,360.664398 280.205139,360.361389 
	C281.419891,359.084259 282.777771,358.185059 282.928192,357.115936 
	C283.094727,355.932495 282.443634,354.327179 281.598206,353.416779 
	C281.040527,352.816254 279.511292,353.118011 278.417053,353.015778 
	C278.150360,352.734863 277.883698,352.453949 277.613281,352.213440 
	C277.074829,349.234131 276.540161,346.214386 276.005493,343.194611 
	C276.456818,342.888824 276.908173,342.583069 277.359528,342.277283 
	C283.285309,345.515289 286.967255,351.327576 291.834808,355.519104 
	C286.584778,360.408600 281.758545,364.903381 276.629822,369.679901 
	C276.490417,368.158905 276.335419,366.467499 276.149872,364.374390 
	C276.119324,363.972687 276.065216,364.050079 276.409119,363.964844 
	C276.839752,363.229462 276.926453,362.579254 277.013123,361.929077 
	C277.013123,361.929077 277.008087,362.013123 277.281128,362.321838 
	C278.232330,362.088501 278.910492,361.546478 279.588684,361.004456 
z"/>
<path fill="#EBEBEB" opacity="1.000000" stroke="none" 
	d="
M151.675354,528.534851 
	C152.025879,527.011658 151.979446,525.690308 152.573700,524.793640 
	C153.286224,523.718445 154.538757,522.318787 155.569321,522.308960 
	C156.864471,522.296631 158.691330,523.221619 159.383606,524.315125 
	C162.371780,529.035583 165.029160,533.965454 167.806931,538.819153 
	C167.530457,539.300049 167.253998,539.781006 166.977524,540.261902 
	C165.365677,539.401306 163.838120,538.254822 162.121750,537.748596 
	C159.689590,537.031250 157.118256,536.785767 155.732071,536.539001 
	C153.312454,539.206543 151.723297,540.958496 150.134155,542.710449 
	C149.582764,542.358582 149.031387,542.006775 148.480011,541.654968 
	C149.507370,537.411560 150.534729,533.168213 151.675354,528.534851 
z"/>
<path fill="#EAEAEA" opacity="1.000000" stroke="none" 
	d="
M112.673126,532.489563 
	C111.593834,531.258911 110.745491,530.278687 109.834656,529.226257 
	C114.495605,525.943420 116.147064,530.876099 118.540787,532.196655 
	C121.061562,529.854431 123.429260,527.654480 125.796959,525.454529 
	C126.265572,525.878845 126.734184,526.303223 127.202805,526.727539 
	C126.365669,528.456421 125.632347,530.245667 124.669334,531.901367 
	C122.798309,535.118103 121.279907,538.205933 122.683006,542.198242 
	C123.669769,545.005920 122.553696,546.790894 120.291969,544.860779 
	C117.829346,540.820496 115.366714,536.780212 112.673126,532.489563 
z"/>
<path fill="#E4E4E4" opacity="1.000000" stroke="none" 
	d="
M58.204582,553.095581 
	C57.941891,552.700073 58.140392,552.964355 58.168846,553.000488 
	C57.323902,547.679871 56.450508,542.323059 55.585178,537.015747 
	C58.275684,536.238342 58.275684,536.238342 62.239609,550.011414 
	C65.546562,549.822876 68.917198,549.630737 72.725952,549.283447 
	C73.164070,549.128296 73.094925,549.131531 73.098518,549.101440 
	C72.871574,550.224915 72.641037,551.378479 72.218872,553.491028 
	C67.762604,553.491028 63.114941,553.491028 58.204582,553.095581 
z"/>
<path fill="#050505" opacity="1.000000" stroke="none" 
	d="
M127.343704,464.507782 
	C126.354347,460.661377 125.546738,457.165955 124.690468,453.459900 
	C144.898453,456.525757 157.624863,468.733368 161.606140,488.372620 
	C148.868378,490.589691 132.812195,479.511780 127.343704,464.507782 
z"/>
<path fill="#050505" opacity="1.000000" stroke="none" 
	d="
M206.271912,456.184998 
	C208.165482,456.105072 209.624420,456.105072 211.122803,456.105072 
	C207.715225,474.177277 192.328598,487.468262 173.309952,488.950134 
	C172.827835,475.639984 185.671371,457.718018 206.271912,456.184998 
z"/>
<path fill="#0C0C0C" opacity="1.000000" stroke="none" 
	d="
M150.100952,372.175903 
	C148.032043,372.353821 146.384064,372.510071 144.193726,372.717743 
	C143.766327,368.277924 143.346054,363.912201 142.891693,359.192383 
	C146.168076,358.829987 149.206772,358.493927 152.566620,358.122314 
	C152.957886,362.215027 153.508820,365.980865 153.524384,369.748932 
	C153.527664,370.546539 151.573929,371.352264 150.100952,372.175903 
z"/>
<path fill="#000000" opacity="1.000000" stroke="none" 
	d="
M278.669983,353.293640 
	C279.511292,353.118011 281.040527,352.816254 281.598206,353.416779 
	C282.443634,354.327179 283.094727,355.932495 282.928192,357.115936 
	C282.777771,358.185059 281.419891,359.084259 280.301208,360.321014 
	C279.904999,359.754028 279.825592,358.920654 279.694092,358.095612 
	C279.453308,356.584991 279.181702,355.079285 278.669983,353.293640 
z"/>
<path fill="#000000" opacity="1.000000" stroke="none" 
	d="
M279.305481,360.516357 
	C278.910492,361.546478 278.232330,362.088501 277.239014,362.321564 
	C277.623352,361.351166 278.322815,360.689728 279.305481,360.516357 
z"/>
<path fill="#000000" opacity="1.000000" stroke="none" 
	d="
M276.559509,361.960632 
	C276.926453,362.579254 276.839752,363.229462 276.362549,363.972473 
	C276.016663,363.374298 276.061279,362.683228 276.559509,361.960632 
z"/>
<path fill="#000000" opacity="1.000000" stroke="none" 
	d="
M118.308563,371.111023 
	C114.049675,369.879761 114.115982,369.207153 119.118210,364.884796 
	C119.218323,366.931274 118.899628,368.839630 118.308563,371.111023 
z"/>
<path fill="#000000" opacity="1.000000" stroke="none" 
	d="
M121.597763,374.399048 
	C121.049652,374.907562 120.524712,374.749664 119.700981,374.290955 
	C120.141769,373.904327 120.881348,373.818451 121.597763,374.399048 
z"/>
<path fill="#080808" opacity="1.000000" stroke="none" 
	d="
M138.477448,539.739258 
	C137.003189,539.271423 135.219330,538.915710 135.045059,538.179138 
	C134.369736,535.324463 134.206757,532.348633 133.829758,529.225342 
	C136.360992,528.957458 138.606659,528.719788 141.329300,528.431580 
	C141.837524,531.948853 142.321304,535.297058 142.850342,538.958435 
	C141.473892,539.209045 140.190567,539.442749 138.477448,539.739258 
z"/>
</svg>